Coordinates
version=1
nRows=43
nColumns=12
inDegrees=yes

Units are S.I. units (second, meters, Newtons, ...)
Angles are in degrees

endheader
time	SC_y	SC_z	SC_x	AC_y	AC_z	AC_x	GH_y	GH_z	GH_yy	EL_x	PS_y
       0.0              -54.61          26.59           3.76          57.83          9.574          4.312          10.61          39.21         -53.35          133.2          24.02
   0.03817              -54.61          26.59          3.761          57.83          9.572          4.309          10.64          39.21         -53.33          133.2          24.03
   0.07633              -54.61          26.58          3.763          57.83          9.571          4.305          10.66          39.22         -53.31          133.2          24.03
    0.1145               -54.6          26.58          3.764          57.82          9.569          4.301          10.69          39.23         -53.29          133.2          24.04
    0.1527               -54.6          26.58          3.766          57.82          9.567          4.297          10.71          39.23         -53.27          133.2          24.05
    0.1908              -54.59          26.57          3.768          57.82          9.564          4.293          10.74          39.24         -53.25          133.2          24.06
     0.229              -54.59          26.57           3.77          57.82          9.562          4.288          10.78          39.25         -53.22          133.2          24.07
    0.2672              -54.58          26.56          3.772          57.82           9.56          4.283          10.81          39.26          -53.2          133.2          24.07
    0.3053              -54.57          26.56          3.774          57.82          9.557          4.278          10.84          39.27         -53.17          133.2          24.08
    0.3435              -54.57          26.55          3.777          57.81          9.554          4.272          10.88          39.28         -53.14          133.2           24.1
    0.3817              -54.56          26.55          3.779          57.81          9.551          4.266          10.92          39.29         -53.11          133.2          24.11
    0.4198              -54.55          26.54          3.782          57.81          9.548          4.259          10.97           39.3         -53.07          133.2          24.12
     0.458              -54.55          26.54          3.785          57.81          9.544          4.252          11.02          39.31         -53.04          133.2          24.13
    0.4962              -54.54          26.53          3.788          57.81          9.541          4.244          11.07          39.33          -53.0          133.1          24.15
    0.5343              -54.53          26.52          3.792           57.8          9.537          4.236          11.12          39.34         -52.95          133.1          24.16
    0.5725              -54.52          26.51          3.795           57.8          9.532          4.227          11.18          39.36         -52.91          133.1          24.18
    0.6107              -54.51          26.51          3.799           57.8          9.527          4.217          11.25          39.37         -52.86          133.1           24.2
    0.6488              -54.49           26.5          3.804          57.79          9.522          4.206          11.32          39.39          -52.8          133.1          24.22
     0.687              -54.48          26.49          3.809          57.79          9.516          4.194           11.4          39.41         -52.74          133.1          24.24
    0.7252              -54.47          26.47          3.814          57.78           9.51          4.181          11.48          39.43         -52.68          133.1          24.26
    0.7633              -54.45          26.46           3.82          57.78          9.503          4.167          11.58          39.46          -52.6          133.0          24.29
    0.8015              -54.43          26.45          3.826          57.78          9.495          4.152          11.68          39.48         -52.52          133.0          24.32
    0.8397              -54.41          26.43          3.833          57.77          9.487          4.135           11.8          39.51         -52.44          133.0          24.35
    0.8778              -54.39          26.42          3.841          57.76          9.478          4.116          11.92          39.55         -52.34          133.0          24.38
     0.916              -54.37           26.4           3.85          57.76          9.467          4.094          12.06          39.58         -52.23          132.9          24.42
    0.9542              -54.34          26.38           3.86          57.75          9.456          4.071          12.22          39.62         -52.11          132.9          24.47
    0.9923              -54.31          26.36          3.871          57.74          9.443          4.044           12.4          39.67         -51.97          132.9          24.51
     1.031              -54.28          26.33          3.883          57.73          9.428          4.015          12.59          39.72         -51.82          132.8          24.57
     1.069              -54.24           26.3          3.897          57.72          9.412          3.981          12.82          39.78         -51.65          132.8          24.63
     1.107              -54.19          26.27          3.913          57.71          9.393          3.943          13.07          39.84         -51.45          132.7           24.7
     1.145              -54.15          26.23          3.931          57.69          9.372          3.899          13.36          39.92         -51.23          132.6          24.78
     1.183              -54.09          26.19          3.951          57.68          9.347          3.849          13.69          40.01         -50.97          132.6          24.87
     1.221              -54.02          26.14          3.975          57.66          9.319          3.792          14.08          40.11         -50.68          132.5          24.98
      1.26              -53.95          26.08          4.003          57.64          9.286          3.725          14.52          40.22         -50.33          132.4           25.1
     1.298              -53.86          26.01          4.035          57.61          9.248          3.646          15.05          40.36         -49.93          132.3          25.25
     1.336              -53.75          25.93          4.073          57.58          9.202          3.554          15.66          40.52         -49.45          132.1          25.42
     1.374              -53.63          25.83          4.119          57.54          9.148          3.444          16.39          40.71         -48.89          132.0          25.62
     1.412              -53.48          25.72          4.173           57.5          9.084          3.312          17.27          40.93         -48.21          131.8          25.86
      1.45               -53.3          25.58          4.239          57.45          9.006          3.153          18.33          41.21          -47.4          131.5          26.15
     1.489              -53.08          25.41          4.319          57.39           8.91          2.958          19.62          41.54          -46.4          131.3          26.51
     1.527               -52.8           25.2          4.419          57.31          8.793          2.718          21.22          41.96         -45.16          130.9          26.95
     1.565              -52.46          24.94          4.543          57.21          8.646          2.418          23.22          42.47         -43.63          130.5           27.5
     1.603              -52.03          24.61          4.699          57.09          8.461          2.041          25.73          43.12         -41.69          129.9           28.2
